<svg id="eqlPoxeaUs71" xmlns="http://www.w3.org/2000/svg" xmlns:xlink="http://www.w3.org/1999/xlink" viewBox="0 0 506.61 374.47" shape-rendering="geometricPrecision" text-rendering="geometricPrecision"><polygon id="eqlPoxeaUs72" points="7.66,139.23 7.66,147.09 0,143.16 7.66,139.23" fill="rgb(196,196,196)" stroke="none" stroke-width="1"/><rect id="eqlPoxeaUs73" width="0.01" height="2" rx="0" ry="0" transform="matrix(1 0 0 1 7.66 142.16)" fill="rgb(196,196,196)" stroke="none" stroke-width="1"/><rect id="eqlPoxeaUs74" width="9.83" height="2" rx="0" ry="0" transform="matrix(1 0 0 1 10.67 142.16)" fill="rgb(196,196,196)" stroke="none" stroke-width="1"/><rect id="eqlPoxeaUs75" width="13.93" height="2" rx="0" ry="0" transform="matrix(1 0 0 1 23.5 142.16)" fill="rgb(196,196,196)" stroke="none" stroke-width="1"/><rect id="eqlPoxeaUs76" width="425.78" height="2" rx="0" ry="0" transform="matrix(1 0 0 1 40.43 142.16)" fill="rgb(196,196,196)" stroke="none" stroke-width="1"/><rect id="eqlPoxeaUs77" width="13.93" height="2" rx="0" ry="0" transform="matrix(1 0 0 1 469.21 142.16)" fill="rgb(196,196,196)" stroke="none" stroke-width="1"/><rect id="eqlPoxeaUs78" width="9.83" height="2" rx="0" ry="0" transform="matrix(1 0 0 1 486.14 142.16)" fill="rgb(196,196,196)" stroke="none" stroke-width="1"/><polygon id="eqlPoxeaUs79" points="506.61,143.15 498.97,147.08 498.97,139.24 506.61,143.15" fill="rgb(196,196,196)" stroke="none" stroke-width="1"/><rect id="eqlPoxeaUs710" width="0.02" height="2" rx="0" ry="0" transform="matrix(1 0 0 1 498.95 142.16)" fill="rgb(196,196,196)" stroke="none" stroke-width="1"/><rect id="eqlPoxeaUs711" width="2" height="9.83" rx="0" ry="0" transform="matrix(1 0 0 1 232.26 10.67)" fill="rgb(196,196,196)" stroke="none" stroke-width="1"/><rect id="eqlPoxeaUs712" width="2" height="13.93" rx="0" ry="0" transform="matrix(1 0 0 1 232.26 23.5)" fill="rgb(196,196,196)" stroke="none" stroke-width="1"/><rect id="eqlPoxeaUs713" width="2" height="293.61" rx="0" ry="0" transform="matrix(1 0 0 1 232.26 40.43)" fill="rgb(196,196,196)" stroke="none" stroke-width="1"/><rect id="eqlPoxeaUs714" width="2" height="13.93" rx="0" ry="0" transform="matrix(1 0 0 1 232.26 337.04)" fill="rgb(196,196,196)" stroke="none" stroke-width="1"/><rect id="eqlPoxeaUs715" width="2" height="9.83" rx="0" ry="0" transform="matrix(1 0 0 1 232.26 353.97)" fill="rgb(196,196,196)" stroke="none" stroke-width="1"/><rect id="eqlPoxeaUs716" width="2" height="0.01" rx="0" ry="0" transform="matrix(1 0 0 1 232.26 366.8)" fill="rgb(196,196,196)" stroke="none" stroke-width="1"/><path id="eqlPoxeaUs717" d="M296.27,270.79C277.69,270.79,259.52,227.18,242.27,141.18C229.52,77.65,221.91,13.29,221.83,12.65L224.83,12.3C224.9,12.94,232.5,77.19,245.22,140.6C266.32,245.72,284.63,267.79,296.28,267.79C307.93,267.79,326.28,245.72,347.34,140.59C360.07,77.18,367.66,12.94,367.74,12.3L370.74,12.65C370.66,13.29,363.05,77.65,350.31,141.18C333,227.18,314.85,270.79,296.27,270.79Z" transform="matrix(1 0 0 1 -12.655 -11.25)" fill="rgb(41,42,98)" stroke="none" stroke-width="1"/><rect id="eqlPoxeaUs718" width="1" height="4.5" rx="0" ry="0" transform="matrix(1 0 0 1 282.63 367.24)" fill="rgb(40,43,98)" stroke="none" stroke-width="1"/><path id="eqlPoxeaUs719" d="M296.77,368.2L295.77,368.2L295.77,359.42L296.77,359.42ZM296.77,350.64L295.77,350.64L295.77,341.86L296.77,341.86ZM296.77,333.08L295.77,333.08L295.77,324.3L296.77,324.3ZM296.77,315.52L295.77,315.52L295.77,306.74L296.77,306.74ZM296.77,297.96L295.77,297.96L295.77,289.18L296.77,289.18ZM296.77,280.4L295.77,280.4L295.77,271.62L296.77,271.62ZM296.77,262.84L295.77,262.84L295.77,254.06L296.77,254.06ZM296.77,245.27L295.77,245.27L295.77,236.49L296.77,236.49ZM296.77,227.71L295.77,227.71L295.77,218.93L296.77,218.93ZM296.77,210.15L295.77,210.15L295.77,201.37L296.77,201.37ZM296.77,192.59L295.77,192.59L295.77,183.81L296.77,183.81ZM296.77,175.03L295.77,175.03L295.77,166.25L296.77,166.25ZM296.77,157.47L295.77,157.47L295.77,148.69L296.77,148.69ZM296.77,139.91L295.77,139.91L295.77,131.13L296.77,131.13ZM296.77,122.34L295.77,122.34L295.77,113.56L296.77,113.56ZM296.77,104.78L295.77,104.78L295.77,96L296.77,96ZM296.77,87.22L295.77,87.22L295.77,78.44L296.77,78.44ZM296.77,69.66L295.77,69.66L295.77,60.88L296.77,60.88ZM296.77,52.1L295.77,52.1L295.77,43.32L296.77,43.32ZM296.77,34.54L295.77,34.54L295.77,25.76L296.77,25.76Z" transform="matrix(1 0 0 1 -13.14 -9.74)" fill="rgb(40,43,98)" stroke="none" stroke-width="1"/><rect id="eqlPoxeaUs720" width="1" height="4.5" rx="0" ry="0" transform="matrix(1 0 0 1 282.63 2.73)" fill="rgb(40,43,98)" stroke="none" stroke-width="1"/><circle id="eqlPoxeaUs721" r="5.44" transform="matrix(1 0 0 1 283.13 143.16)" fill="rgb(185,185,185)" stroke="none" stroke-width="1"/><path id="eqlPoxeaUs722" d="M296.27,159.34C293.665263,159.34,291.317005,157.770944,290.320216,155.364481C289.323426,152.958018,289.874405,150.188059,291.716232,148.346232C293.558059,146.504405,296.328018,145.953426,298.734481,146.950216C301.140944,147.947005,302.71,150.295263,302.71,152.9C302.704494,156.45443,299.82443,159.334494,296.27,159.34ZM296.27,148.46C294.474188,148.46,292.855203,149.541771,292.167975,151.200886C291.480747,152.86,291.860615,154.769723,293.130446,156.039554C294.400277,157.309385,296.31,157.689253,297.969114,157.002025C299.628229,156.314797,300.71,154.695812,300.71,152.9C300.71,150.447856,298.722144,148.46,296.27,148.46Z" transform="matrix(1 0 0 1 -13.14 -9.74)" fill="rgb(117,117,118)" stroke="none" stroke-width="1"/><g id="eqlPoxeaUs723" transform="matrix(1 0 0 1 0.000001 0)"><circle id="eqlPoxeaUs724" r="5.44" transform="matrix(1 0 0 1 283.63 259.55)" fill="rgb(185,185,185)" stroke="none" stroke-width="1"/><path id="eqlPoxeaUs725" d="M296.27,275.73C293.665263,275.73,291.317005,274.160944,290.320216,271.754481C289.323426,269.348018,289.874405,266.578059,291.716232,264.736232C293.558059,262.894405,296.328018,262.343426,298.734481,263.340216C301.140944,264.337005,302.71,266.685263,302.71,269.29C302.704494,272.84443,299.82443,275.724494,296.27,275.73ZM296.27,264.85C294.474188,264.85,292.855203,265.931771,292.167975,267.590886C291.480747,269.25,291.860615,271.159723,293.130446,272.429554C294.400277,273.699385,296.31,274.079253,297.969114,273.392025C299.628229,272.704797,300.71,271.085812,300.71,269.29C300.71,266.837856,298.722144,264.85,296.27,264.85Z" transform="matrix(1 0 0 1 -13.14 -9.74)" fill="rgb(40,43,98)" stroke="none" stroke-width="1"/><path id="eqlPoxeaUs726" d="M306.69,286.44C306.029378,286.09751,305.493882,285.555014,305.16,284.89C304.787952,284.121034,304.60618,283.273909,304.63,282.42L304.63,281.05C304.607078,280.205805,304.788927,279.368614,305.16,278.61C305.497235,277.949899,306.032109,277.411528,306.69,277.07C307.445072,276.698994,308.279016,276.517105,309.12,276.54C309.632573,276.540258,310.143135,276.604079,310.64,276.73C311.097131,276.846626,311.532642,277.035685,311.93,277.29C312.298479,277.517785,312.620763,277.812928,312.88,278.16L311.3,279.65C311.038748,279.370818,310.721957,279.149405,310.37,279C310.010307,278.856984,309.627075,278.782372,309.24,278.78C308.623658,278.744264,308.018657,278.956734,307.56,279.37C307.139647,279.82442,306.926083,280.432533,306.97,281.05L306.97,282.42C306.925596,283.049579,307.138496,283.670238,307.56,284.14C308.01277,284.563983,308.62108,284.781236,309.24,284.74C309.630812,284.744017,310.017355,284.658499,310.37,284.49C310.727414,284.331952,311.045115,284.096239,311.3,283.8L312.88,285.38C312.602558,285.728601,312.263637,286.023462,311.88,286.25C311.47742,286.489542,311.043173,286.67132,310.59,286.79C310.096089,286.912441,309.588853,286.972906,309.08,286.97C308.252001,286.991209,307.431415,286.809238,306.69,286.44Z" transform="matrix(1 0 0 1 -13.14 -9.74)" fill="rgb(29,29,27)" stroke="none" stroke-width="1"/></g><g id="eqlPoxeaUs727"><circle id="eqlPoxeaUs728" r="5.44" transform="matrix(1 0 0 1 333.19 143.16)" fill="rgb(185,185,185)" stroke="none" stroke-width="1"/><path id="eqlPoxeaUs729" d="M346.33,159.34C343.725263,159.34,341.377005,157.770944,340.380216,155.364481C339.383426,152.958018,339.934405,150.188059,341.776232,148.346232C343.618059,146.504405,346.388018,145.953426,348.794481,146.950216C351.200944,147.947005,352.77,150.295263,352.77,152.9C352.764494,156.45443,349.88443,159.334494,346.33,159.34ZM346.33,148.46C344.534188,148.46,342.915203,149.541771,342.227975,151.200886C341.540747,152.86,341.920615,154.769723,343.190446,156.039554C344.460277,157.309385,346.37,157.689253,348.029114,157.002025C349.688229,156.314797,350.77,154.695812,350.77,152.9C350.77,150.447856,348.782144,148.46,346.33,148.46Z" transform="matrix(1 0 0 1 -13.14 -9.74)" fill="rgb(40,43,98)" stroke="none" stroke-width="1"/></g><g id="eqlPoxeaUs730" transform="matrix(1 0 0 1 0 0.000001)"><circle id="eqlPoxeaUs731" r="5.44" transform="matrix(1 0 0 1 233.37 143.16)" fill="rgb(185,185,185)" stroke="none" stroke-width="1"/><path id="eqlPoxeaUs732" d="M246.51,159.34C242.959926,159.312436,240.101746,156.417059,240.120086,152.866925C240.138426,149.316791,243.026368,146.451099,246.576537,146.460215C250.126707,146.469332,252.999893,149.349819,253,152.9C252.997373,154.615866,252.31116,156.259964,251.093176,157.468565C249.875191,158.677166,248.225835,159.350643,246.51,159.34ZM246.51,148.46C244.064554,148.487541,242.101816,150.487426,242.120124,152.932958C242.138433,155.378491,244.130895,157.348765,246.576479,157.339688C249.022064,157.330611,250.999845,155.345601,251,152.9C251.000075,151.713724,250.525434,150.576749,249.681926,149.742635C248.838419,148.908521,247.6962,148.446641,246.51,148.46Z" transform="matrix(1 0 0 1 -13.14 -9.74)" fill="rgb(40,43,98)" stroke="none" stroke-width="1"/></g><path id="eqlPoxeaUs733" d="M513.23,164.13L514.01,165.29L510.73,169.72L509.15,169.72ZM513.23,164.94L509.16,159.58L510.74,159.58L514.06,164.14L518.22,169.72L516.7,169.72ZM513.5,164L516.5,159.58L518.08,159.58L514.24,165.05Z" transform="matrix(1 0 0 1 -13.14 -9.74)" fill="rgb(29,29,27)" stroke="none" stroke-width="1"/><polygon id="eqlPoxeaUs734" points="498.97,139.24 498.97,147.08 498.95,147.09 498.95,139.23 498.97,139.24" fill="rgb(255,255,255)" stroke="none" stroke-width="1"/><path id="eqlPoxeaUs735" d="M233.22,167.32C232.782262,166.834251,232.55876,166.192584,232.6,165.54L232.6,161.66C232.529287,160.997216,232.762871,160.33811,233.23516,159.867764C233.70745,159.397418,234.367513,159.166554,235.03,159.24C235.692487,159.166554,236.35255,159.397418,236.82484,159.867764C237.297129,160.33811,237.530713,160.997216,237.46,161.66L237.46,165.54C237.498973,166.192272,237.275768,166.833087,236.84,167.32C235.784125,168.173125,234.275875,168.173125,233.22,167.32ZM235.96,166.49C236.195702,166.213066,236.307726,165.851697,236.27,165.49L236.27,161.61C236.292761,161.266906,236.185674,160.927798,235.97,160.66C235.421069,160.218575,234.638931,160.218575,234.09,160.66C233.874326,160.927798,233.767239,161.266906,233.79,161.61L233.79,165.49C233.752274,165.851697,233.864298,166.213066,234.1,166.49C234.642551,166.928262,235.417449,166.928262,235.96,166.49Z" transform="matrix(1 0 0 1 -13.14 -9.74)" fill="rgb(29,29,27)" stroke="none" stroke-width="1"/><path id="eqlPoxeaUs736" d="M283.54,166.83L286.54,162.83C286.701358,162.613837,286.835688,162.378761,286.94,162.13C287.025726,161.909682,287.073077,161.676307,287.08,161.44L287.08,161.44C287.101642,161.145275,286.991818,160.85607,286.78,160.65C286.544424,160.448677,286.239108,160.348102,285.93,160.37C285.619619,160.355612,285.316623,160.467431,285.09,160.68C284.855338,160.91072,284.716109,161.221308,284.7,161.55L283.46,161.55C283.511177,161.107123,283.657888,160.680635,283.89,160.3C284.0967,159.96566,284.385981,159.690155,284.73,159.5C285.098834,159.31464,285.507287,159.221966,285.92,159.23C286.3673,159.218636,286.811478,159.307471,287.22,159.49C287.565546,159.652149,287.852112,159.917746,288.04,160.25C288.237506,160.618316,288.334104,161.032309,288.32,161.45L288.32,161.45C288.315612,161.771467,288.254683,162.089653,288.14,162.39C288.008702,162.729928,287.830291,163.049721,287.61,163.34L285.15,166.69L288.37,166.69L288.37,167.83L283.57,167.83Z" transform="matrix(1 0 0 1 -13.14 -9.74)" fill="rgb(29,29,27)" stroke="none" stroke-width="1"/><path id="eqlPoxeaUs737" d="M329.87,165.53L332.73,159.36L334,159.36L331.21,165.46L335.39,165.46L335.39,166.56L329.91,166.56ZM333.55,162.86L334.71,162.86L334.71,167.86L333.55,167.86Z" transform="matrix(1 0 0 1 -13.14 -9.74)" fill="rgb(29,29,27)" stroke="none" stroke-width="1"/><g id="eqlPoxeaUs738" transform="matrix(1 0 0 1 0.000001 0.000001)"><path id="eqlPoxeaUs739" d="M233.36,269.92L233.36,271.05L229.42,271.05L229.42,269.92Z" transform="matrix(1 0 0 1 -13.14 -9.74)" fill="rgb(29,29,27)" stroke="none" stroke-width="1"/><path id="eqlPoxeaUs740" d="M235,271.2L237.86,265.03L239.09,265.03L236.3,271.12L240.48,271.12L240.48,272.23L235,272.23ZM238.67,268.53L239.84,268.53L239.84,273.53L238.67,273.53Z" transform="matrix(1 0 0 1 -13.14 -9.74)" fill="rgb(29,29,27)" stroke="none" stroke-width="1"/></g><path id="eqlPoxeaUs741" d="M252.44,12.52L253.89,12.52L257.22,21.93L256.48,23.49ZM261.44,12.52L257.1,25C256.973712,25.4065,256.762365,25.781471,256.48,26.1C256.225901,26.371148,255.905286,26.571101,255.55,26.68C255.10529,26.810016,254.643202,26.870728,254.18,26.86L253.78,26.86L253.78,25.56L254.18,25.56C254.621767,25.580394,255.057836,25.453793,255.42,25.2C255.794753,24.875486,256.071761,24.453048,256.22,23.98L260,12.52Z" transform="matrix(1 0 0 1 -13.14 -9.74)" fill="rgb(29,29,27)" stroke="none" stroke-width="1"/><polygon id="eqlPoxeaUs742" points="498.97,139.24 498.97,147.08 498.95,147.09 498.95,139.23 498.97,139.24" fill="rgb(196,196,196)" stroke="none" stroke-width="1"/><polygon id="eqlPoxeaUs743" points="237.18,366.81 233.26,374.47 229.33,366.81 237.18,366.81" fill="rgb(196,196,196)" stroke="none" stroke-width="1"/><polygon id="eqlPoxeaUs744" points="237.18,7.67 229.33,7.67 233.25,0 237.18,7.67" fill="rgb(196,196,196)" stroke="none" stroke-width="1"/><script><![CDATA[!function(t,n){"object"==typeof exports&&"undefined"!=typeof module?module.exports=n():"function"==typeof define&&define.amd?define(n):((t="undefined"!=typeof globalThis?globalThis:t||self).__SVGATOR_PLAYER__=t.__SVGATOR_PLAYER__||{},t.__SVGATOR_PLAYER__["5c7f360c"]=n())}(this,(function(){"use strict";function t(t,n){var r=Object.keys(t);if(Object.getOwnPropertySymbols){var e=Object.getOwnPropertySymbols(t);n&&(e=e.filter((function(n){return Object.getOwnPropertyDescriptor(t,n).enumerable}))),r.push.apply(r,e)}return r}function n(t){return(n="function"==typeof Symbol&&"symbol"==typeof Symbol.iterator?function(t){return typeof t}:function(t){return t&&"function"==typeof Symbol&&t.constructor===Symbol&&t!==Symbol.prototype?"symbol":typeof t})(t)}function r(t,n){if(!(t instanceof n))throw new TypeError("Cannot call a class as a function")}function e(t,n){for(var r=0;r<n.length;r++){var e=n[r];e.enumerable=e.enumerable||!1,e.configurable=!0,"value"in e&&(e.writable=!0),Object.defineProperty(t,e.key,e)}}function i(t,n,r){return n&&e(t.prototype,n),r&&e(t,r),t}function o(t,n,r){return n in t?Object.defineProperty(t,n,{value:r,enumerable:!0,configurable:!0,writable:!0}):t[n]=r,t}function u(t){return(u=Object.setPrototypeOf?Object.getPrototypeOf:function(t){return t.__proto__||Object.getPrototypeOf(t)})(t)}function a(t,n){return(a=Object.setPrototypeOf||function(t,n){return t.__proto__=n,t})(t,n)}function l(t,n){if(n&&("object"==typeof n||"function"==typeof n))return n;if(void 0!==n)throw new TypeError("Derived constructors may only return object or undefined");return function(t){if(void 0===t)throw new ReferenceError("this hasn't been initialised - super() hasn't been called");return t}(t)}function f(t){var n=function(){if("undefined"==typeof Reflect||!Reflect.construct)return!1;if(Reflect.construct.sham)return!1;if("function"==typeof Proxy)return!0;try{return Boolean.prototype.valueOf.call(Reflect.construct(Boolean,[],(function(){}))),!0}catch(t){return!1}}();return function(){var r,e=u(t);if(n){var i=u(this).constructor;r=Reflect.construct(e,arguments,i)}else r=e.apply(this,arguments);return l(this,r)}}function s(t,n,r){return(s="undefined"!=typeof Reflect&&Reflect.get?Reflect.get:function(t,n,r){var e=function(t,n){for(;!Object.prototype.hasOwnProperty.call(t,n)&&null!==(t=u(t)););return t}(t,n);if(e){var i=Object.getOwnPropertyDescriptor(e,n);return i.get?i.get.call(r):i.value}})(t,n,r||t)}var c=h(Math.pow(10,-6));function h(t){var n=arguments.length>1&&void 0!==arguments[1]?arguments[1]:6;if(Number.isInteger(t))return t;var r=Math.pow(10,n);return Math.round((+t+Number.EPSILON)*r)/r}function v(t,n){var r=arguments.length>2&&void 0!==arguments[2]?arguments[2]:c;return Math.abs(t-n)<r}var y=Math.PI/180;function g(t){return t}function d(t,n,r){var e=1-r;return 3*r*e*(t*e+n*r)+r*r*r}function p(){var t=arguments.length>0&&void 0!==arguments[0]?arguments[0]:0,n=arguments.length>1&&void 0!==arguments[1]?arguments[1]:0,r=arguments.length>2&&void 0!==arguments[2]?arguments[2]:1,e=arguments.length>3&&void 0!==arguments[3]?arguments[3]:1;return t<0||t>1||r<0||r>1?null:v(t,n)&&v(r,e)?g:function(i){if(i<=0)return t>0?i*n/t:0===n&&r>0?i*e/r:0;if(i>=1)return r<1?1+(i-1)*(e-1)/(r-1):1===r&&t<1?1+(i-1)*(n-1)/(t-1):1;for(var o,u=0,a=1;u<a;){var l=d(t,r,o=(u+a)/2);if(v(i,l))break;l<i?u=o:a=o}return d(n,e,o)}}function m(){return 1}function b(t){return 1===t?1:0}function w(){var t=arguments.length>0&&void 0!==arguments[0]?arguments[0]:1,n=arguments.length>1&&void 0!==arguments[1]?arguments[1]:0;if(1===t){if(0===n)return b;if(1===n)return m}var r=1/t;return function(t){return t>=1?1:(t+=n*r)-t%r}}function x(t,n,r){return t>=.5?r:n}function k(t,n,r){return 0===t||n===r?n:t*(r-n)+n}function _(t,n,r){var e=k(t,n,r);return e<=0?0:e}function A(t,n,r){return 0===t?n:1===t?r:{x:k(t,n.x,r.x),y:k(t,n.y,r.y)}}function S(t,n,r){var e=function(t,n,r){return Math.round(k(t,n,r))}(t,n,r);return e<=0?0:e>=255?255:e}function O(t,n,r){return 0===t?n:1===t?r:{r:S(t,n.r,r.r),g:S(t,n.g,r.g),b:S(t,n.b,r.b),a:k(t,null==n.a?1:n.a,null==r.a?1:r.a)}}function P(t,n,r){if(0===t)return n;if(1===t)return r;var e=n.length;if(e!==r.length)return x(t,n,r);for(var i=[],o=0;o<e;o++)i.push(O(t,n[o],r[o]));return i}function j(t,n){for(var r=[],e=0;e<t;e++)r.push(n);return r}function M(t,n){if(--n<=0)return t;var r=(t=Object.assign([],t)).length;do{for(var e=0;e<r;e++)t.push(t[e])}while(--n>0);return t}var E,R=function(){function t(n){r(this,t),this.list=n,this.length=n.length}return i(t,[{key:"setAttribute",value:function(t,n){for(var r=this.list,e=0;e<this.length;e++)r[e].setAttribute(t,n)}},{key:"removeAttribute",value:function(t){for(var n=this.list,r=0;r<this.length;r++)n[r].removeAttribute(t)}},{key:"style",value:function(t,n){for(var r=this.list,e=0;e<this.length;e++)r[e].style[t]=n}}]),t}(),I=/-./g,F=function(t,n){return n.toUpperCase()};function N(t){return"function"==typeof t?t:x}function T(t){return t?"function"==typeof t?t:Array.isArray(t)?function(t){var n=arguments.length>1&&void 0!==arguments[1]?arguments[1]:g;if(!Array.isArray(t))return n;switch(t.length){case 1:return w(t[0])||n;case 2:return w(t[0],t[1])||n;case 4:return p(t[0],t[1],t[2],t[3])||n}return n}(t,null):function(t,n){var r=arguments.length>2&&void 0!==arguments[2]?arguments[2]:g;switch(t){case"linear":return g;case"steps":return w(n.steps||1,n.jump||0)||r;case"bezier":case"cubic-bezier":return p(n.x1||0,n.y1||0,n.x2||0,n.y2||0)||r}return r}(t.type,t.value,null):null}function B(t,n,r){var e=arguments.length>3&&void 0!==arguments[3]&&arguments[3],i=n.length-1;if(t<=n[0].t)return e?[0,0,n[0].v]:n[0].v;if(t>=n[i].t)return e?[i,1,n[i].v]:n[i].v;var o,u=n[0],a=null;for(o=1;o<=i;o++){if(!(t>n[o].t)){a=n[o];break}u=n[o]}return null==a?e?[i,1,n[i].v]:n[i].v:u.t===a.t?e?[o,1,a.v]:a.v:(t=(t-u.t)/(a.t-u.t),u.e&&(t=u.e(t)),e?[o,t,r(t,u.v,a.v)]:r(t,u.v,a.v))}function q(t,n){var r=arguments.length>2&&void 0!==arguments[2]?arguments[2]:null;return t&&t.length?"function"!=typeof n?null:("function"!=typeof r&&(r=null),function(e){var i=B(e,t,n);return null!=i&&r&&(i=r(i)),i}):null}function L(t,n){return t.t-n.t}function C(t,r,e,i,o){var u,a="@"===e[0],l="#"===e[0],f=E[e],s=x;switch(a?(u=e.substr(1),e=u.replace(I,F)):l&&(e=e.substr(1)),n(f)){case"function":if(s=f(i,o,B,T,e,a,r,t),l)return s;break;case"string":s=q(i,N(f));break;case"object":if((s=q(i,N(f.i),f.f))&&"function"==typeof f.u)return f.u(r,s,e,a,t)}return s?function(t,n,r){if(arguments.length>3&&void 0!==arguments[3]&&arguments[3])return t instanceof R?function(e){return t.style(n,r(e))}:function(e){return t.style[n]=r(e)};if(Array.isArray(n)){var e=n.length;return function(i){var o=r(i);if(null==o)for(var u=0;u<e;u++)t[u].removeAttribute(n);else for(var a=0;a<e;a++)t[a].setAttribute(n,o)}}return function(e){var i=r(e);null==i?t.removeAttribute(n):t.setAttribute(n,i)}}(r,e,s,a):null}function D(t,r,e,i){if(!i||"object"!==n(i))return null;var o=null,u=null;return Array.isArray(i)?u=function(t){if(!t||!t.length)return null;for(var n=0;n<t.length;n++)t[n].e&&(t[n].e=T(t[n].e));return t.sort(L)}(i):(u=i.keys,o=i.data||null),u?C(t,r,e,u,o):null}function z(t,n,r){if(!r)return null;var e=[];for(var i in r)if(r.hasOwnProperty(i)){var o=D(t,n,i,r[i]);o&&e.push(o)}return e.length?e:null}function V(t,n){if(!n.duration||n.duration<0)return null;var r=function(t,n){if(!n)return null;var r=[];if(Array.isArray(n))for(var e=n.length,i=0;i<e;i++){var o=n[i];if(2===o.length){var u=null;if("string"==typeof o[0])u=t.getElementById(o[0]);else if(Array.isArray(o[0])){u=[];for(var a=0;a<o[0].length;a++)if("string"==typeof o[0][a]){var l=t.getElementById(o[0][a]);l&&u.push(l)}u=u.length?1===u.length?u[0]:new R(u):null}if(u){var f=z(t,u,o[1]);f&&(r=r.concat(f))}}}else for(var s in n)if(n.hasOwnProperty(s)){var c=t.getElementById(s);if(c){var h=z(t,c,n[s]);h&&(r=r.concat(h))}}return r.length?r:null}(t,n.elements);return r?function(t,n){var r=arguments.length>2&&void 0!==arguments[2]?arguments[2]:1/0,e=arguments.length>3&&void 0!==arguments[3]?arguments[3]:1,i=arguments.length>4&&void 0!==arguments[4]&&arguments[4],o=arguments.length>5&&void 0!==arguments[5]?arguments[5]:1,u=t.length,a=e>0?n:0;i&&r%2==0&&(a=n-a);var l=null;return function(f,s){var c=f%n,h=1+(f-c)/n;s*=e,i&&h%2==0&&(s=-s);var v=!1;if(h>r)c=a,v=!0,-1===o&&(c=e>0?0:n);else if(s<0&&(c=n-c),c===l)return!1;l=c;for(var y=0;y<u;y++)t[y](c);return v}}(r,n.duration,n.iterations||1/0,n.direction||1,!!n.alternate,n.fill||1):null}function G(t){return+("0x"+(t.replace(/[^0-9a-fA-F]+/g,"")||27))}function Y(t,n,r){return!t||!r||n>t.length?t:t.substring(0,n)+Y(t.substring(n+1),r,r)}function Q(t){var n=arguments.length>1&&void 0!==arguments[1]?arguments[1]:27;return!t||t%n?t%n:Q(t/n,n)}function U(t,n,r){if(t&&t.length){var e=G(r),i=G(n),o=Q(e)+5,u=Y(t,Q(e,5),o);return u=u.replace(/\x7c$/g,"==").replace(/\x2f$/g,"="),u=function(t,n,r){var e=+("0x"+t.substring(0,4));t=t.substring(4);for(var i=n%e+r%27,o=[],u=0;u<t.length;u+=2)if("|"!==t[u]){var a=+("0x"+t[u]+t[u+1])-i;o.push(a)}else{var l=+("0x"+t.substring(u+1,u+1+4))-i;u+=3,o.push(l)}return String.fromCharCode.apply(String,o)}(u=(u=atob(u)).replace(/[\x41-\x5A]/g,""),i,e),u=JSON.parse(u)}}Number.isInteger||(Number.isInteger=function(t){return"number"==typeof t&&isFinite(t)&&Math.floor(t)===t}),Number.EPSILON||(Number.EPSILON=2220446049250313e-31);var $=function(){function n(t,e){var i=arguments.length>2&&void 0!==arguments[2]?arguments[2]:{};r(this,n),this._id=0,this._running=!1,this._rollingBack=!1,this._animations=t,this.duration=e.duration,this.alternate=e.alternate,this.fill=e.fill,this.iterations=e.iterations,this.direction=i.direction||1,this.speed=i.speed||1,this.fps=i.fps||100,this.offset=i.offset||0,this.rollbackStartOffset=0}return i(n,[{key:"_rollback",value:function(){var t=this,n=1/0,r=null;this.rollbackStartOffset=this.offset,this._rollingBack||(this._rollingBack=!0,this._running=!0);this._id=window.requestAnimationFrame((function e(i){if(t._rollingBack){null==r&&(r=i);var o=i-r,u=t.rollbackStartOffset-o,a=Math.round(u*t.speed);if(a>t.duration&&n!=1/0){var l=!!t.alternate&&a/t.duration%2>1,f=a%t.duration;a=(f+=l?t.duration:0)||t.duration}var s=t.fps?1e3/t.fps:0,c=Math.max(0,a);if(c<n-s){t.offset=c,n=c;for(var h=t._animations,v=h.length,y=0;y<v;y++)h[y](c,t.direction)}var g=!1;if(t.iterations>0&&-1===t.fill){var d=t.iterations*t.duration,p=d==a;a=p?0:a,t.offset=p?0:t.offset,g=a>d}a>0&&t.offset>=a&&!g?t._id=window.requestAnimationFrame(e):t.stop()}}))}},{key:"_start",value:function(){var t=this,n=arguments.length>0&&void 0!==arguments[0]?arguments[0]:0,r=-1/0,e=null,i={},o=function o(u){t._running=!0,null==e&&(e=u);var a=Math.round((u-e+n)*t.speed),l=t.fps?1e3/t.fps:0;if(a>r+l&&!t._rollingBack){t.offset=a,r=a;for(var f=t._animations,s=f.length,c=0,h=0;h<s;h++)i[h]?c++:(i[h]=f[h](a,t.direction),i[h]&&c++);if(c===s)return void t._stop()}t._id=window.requestAnimationFrame(o)};this._id=window.requestAnimationFrame(o)}},{key:"_stop",value:function(){this._id&&window.cancelAnimationFrame(this._id),this._running=!1,this._rollingBack=!1}},{key:"play",value:function(){!this._rollingBack&&this._running||(this._rollingBack=!1,this.rollbackStartOffset>this.duration&&(this.offset=this.rollbackStartOffset-(this.rollbackStartOffset-this.offset)%this.duration,this.rollbackStartOffset=0),this._start(this.offset))}},{key:"stop",value:function(){this._stop(),this.offset=0,this.rollbackStartOffset=0;var t=this.direction,n=this._animations;window.requestAnimationFrame((function(){for(var r=0;r<n.length;r++)n[r](0,t)}))}},{key:"reachedToEnd",value:function(){return this.iterations>0&&this.offset>=this.iterations*this.duration}},{key:"restart",value:function(){this._stop(),this.offset=0,this._start()}},{key:"pause",value:function(){this._stop()}},{key:"reverse",value:function(){this.direction=-this.direction}}],[{key:"build",value:function(r,e){return delete r.animationSettings,r.options=U(r.options,r.root,"5c7f360c"),r.animations.map((function(n){var e=U(n.s,r.root,"5c7f360c");for(var i in delete n.s,r.animationSettings||(r.animationSettings=function(n){for(var r=1;r<arguments.length;r++){var e=null!=arguments[r]?arguments[r]:{};r%2?t(Object(e),!0).forEach((function(t){o(n,t,e[t])})):Object.getOwnPropertyDescriptors?Object.defineProperties(n,Object.getOwnPropertyDescriptors(e)):t(Object(e)).forEach((function(t){Object.defineProperty(n,t,Object.getOwnPropertyDescriptor(e,t))}))}return n}({},e)),e)e.hasOwnProperty(i)&&(n[i]=e[i])})),(r=function(t,n){if(E=n,!t||!t.root||!Array.isArray(t.animations))return null;for(var r=document.getElementsByTagName("svg"),e=!1,i=0;i<r.length;i++)if(r[i].id===t.root&&!r[i].svgatorAnimation){(e=r[i]).svgatorAnimation=!0;break}if(!e)return null;var o=t.animations.map((function(t){return V(e,t)})).filter((function(t){return!!t}));return o.length?{element:e,animations:o,animationSettings:t.animationSettings,options:t.options||void 0}:null}(r,e))?{el:r.element,options:r.options||{},player:new n(r.animations,r.animationSettings,r.options)}:null}},{key:"push",value:function(t){return this.build(t)}},{key:"init",value:function(){var t=this,n=window.__SVGATOR_PLAYER__&&window.__SVGATOR_PLAYER__["5c7f360c"];Array.isArray(n)&&n.splice(0).forEach((function(n){return t.build(n)}))}}]),n}();function H(t){return h(t)+""}function J(t){var n=arguments.length>1&&void 0!==arguments[1]?arguments[1]:" ";return t&&t.length?t.map(H).join(n):""}function Z(t){return t?null==t.a||t.a>=1?"rgb("+t.r+","+t.g+","+t.b+")":"rgba("+t.r+","+t.g+","+t.b+","+t.a+")":"transparent"}!function(){for(var t=0,n=["ms","moz","webkit","o"],r=0;r<n.length&&!window.requestAnimationFrame;++r)window.requestAnimationFrame=window[n[r]+"RequestAnimationFrame"],window.cancelAnimationFrame=window[n[r]+"CancelAnimationFrame"]||window[n[r]+"CancelRequestAnimationFrame"];window.requestAnimationFrame||(window.requestAnimationFrame=function(n){var r=Date.now(),e=Math.max(0,16-(r-t)),i=window.setTimeout((function(){n(r+e)}),e);return t=r+e,i},window.cancelAnimationFrame=window.clearTimeout)}();var K={f:null,i:function(t,n,r){return 0===t?n:1===t?r:{x:_(t,n.x,r.x),y:_(t,n.y,r.y)}},u:function(t,n){return function(r){var e=n(r);t.setAttribute("rx",H(e.x)),t.setAttribute("ry",H(e.y))}}},W={f:null,i:function(t,n,r){return 0===t?n:1===t?r:{width:_(t,n.width,r.width),height:_(t,n.height,r.height)}},u:function(t,n){return function(r){var e=n(r);t.setAttribute("width",H(e.width)),t.setAttribute("height",H(e.height))}}},X=Math.sin,tt=Math.cos,nt=Math.acos,rt=Math.asin,et=Math.tan,it=Math.atan2,ot=Math.PI/180,ut=180/Math.PI,at=Math.sqrt,lt=function(){function t(){var n=arguments.length>0&&void 0!==arguments[0]?arguments[0]:1,e=arguments.length>1&&void 0!==arguments[1]?arguments[1]:0,i=arguments.length>2&&void 0!==arguments[2]?arguments[2]:0,o=arguments.length>3&&void 0!==arguments[3]?arguments[3]:1,u=arguments.length>4&&void 0!==arguments[4]?arguments[4]:0,a=arguments.length>5&&void 0!==arguments[5]?arguments[5]:0;r(this,t),this.m=[n,e,i,o,u,a],this.i=null,this.w=null,this.s=null}return i(t,[{key:"determinant",get:function(){var t=this.m;return t[0]*t[3]-t[1]*t[2]}},{key:"isIdentity",get:function(){if(null===this.i){var t=this.m;this.i=1===t[0]&&0===t[1]&&0===t[2]&&1===t[3]&&0===t[4]&&0===t[5]}return this.i}},{key:"point",value:function(t,n){var r=this.m;return{x:r[0]*t+r[2]*n+r[4],y:r[1]*t+r[3]*n+r[5]}}},{key:"translateSelf",value:function(){var t=arguments.length>0&&void 0!==arguments[0]?arguments[0]:0,n=arguments.length>1&&void 0!==arguments[1]?arguments[1]:0;if(!t&&!n)return this;var r=this.m;return r[4]+=r[0]*t+r[2]*n,r[5]+=r[1]*t+r[3]*n,this.w=this.s=this.i=null,this}},{key:"rotateSelf",value:function(){var t=arguments.length>0&&void 0!==arguments[0]?arguments[0]:0;if(t%=360){var n=X(t*=ot),r=tt(t),e=this.m,i=e[0],o=e[1];e[0]=i*r+e[2]*n,e[1]=o*r+e[3]*n,e[2]=e[2]*r-i*n,e[3]=e[3]*r-o*n,this.w=this.s=this.i=null}return this}},{key:"scaleSelf",value:function(){var t=arguments.length>0&&void 0!==arguments[0]?arguments[0]:1,n=arguments.length>1&&void 0!==arguments[1]?arguments[1]:1;if(1!==t||1!==n){var r=this.m;r[0]*=t,r[1]*=t,r[2]*=n,r[3]*=n,this.w=this.s=this.i=null}return this}},{key:"skewSelf",value:function(t,n){if(n%=360,(t%=360)||n){var r=this.m,e=r[0],i=r[1],o=r[2],u=r[3];t&&(t=et(t*ot),r[2]+=e*t,r[3]+=i*t),n&&(n=et(n*ot),r[0]+=o*n,r[1]+=u*n),this.w=this.s=this.i=null}return this}},{key:"resetSelf",value:function(){var t=arguments.length>0&&void 0!==arguments[0]?arguments[0]:1,n=arguments.length>1&&void 0!==arguments[1]?arguments[1]:0,r=arguments.length>2&&void 0!==arguments[2]?arguments[2]:0,e=arguments.length>3&&void 0!==arguments[3]?arguments[3]:1,i=arguments.length>4&&void 0!==arguments[4]?arguments[4]:0,o=arguments.length>5&&void 0!==arguments[5]?arguments[5]:0,u=this.m;return u[0]=t,u[1]=n,u[2]=r,u[3]=e,u[4]=i,u[5]=o,this.w=this.s=this.i=null,this}},{key:"recomposeSelf",value:function(){var t=arguments.length>0&&void 0!==arguments[0]?arguments[0]:null,n=arguments.length>1&&void 0!==arguments[1]?arguments[1]:null,r=arguments.length>2&&void 0!==arguments[2]?arguments[2]:null,e=arguments.length>3&&void 0!==arguments[3]?arguments[3]:null,i=arguments.length>4&&void 0!==arguments[4]?arguments[4]:null;return this.isIdentity||this.resetSelf(),t&&(t.x||t.y)&&this.translateSelf(t.x,t.y),n&&this.rotateSelf(n),r&&(r.x&&this.skewSelf(r.x,0),r.y&&this.skewSelf(0,r.y)),!e||1===e.x&&1===e.y||this.scaleSelf(e.x,e.y),i&&(i.x||i.y)&&this.translateSelf(i.x,i.y),this}},{key:"decompose",value:function(){var t=arguments.length>0&&void 0!==arguments[0]?arguments[0]:0,n=arguments.length>1&&void 0!==arguments[1]?arguments[1]:0,r=this.m,e=r[0]*r[0]+r[1]*r[1],i=[[r[0],r[1]],[r[2],r[3]]],o=at(e);if(0===o)return{origin:{x:h(r[4]),y:h(r[5])},translate:{x:h(t),y:h(n)},scale:{x:0,y:0},skew:{x:0,y:0},rotate:0};i[0][0]/=o,i[0][1]/=o;var u=r[0]*r[3]-r[1]*r[2]<0;u&&(o=-o);var a=i[0][0]*i[1][0]+i[0][1]*i[1][1];i[1][0]-=i[0][0]*a,i[1][1]-=i[0][1]*a;var l=at(i[1][0]*i[1][0]+i[1][1]*i[1][1]);if(0===l)return{origin:{x:h(r[4]),y:h(r[5])},translate:{x:h(t),y:h(n)},scale:{x:h(o),y:0},skew:{x:0,y:0},rotate:0};i[1][0]/=l,i[1][1]/=l,a/=l;var f=0;return i[1][1]<0?(f=nt(i[1][1])*ut,i[0][1]<0&&(f=360-f)):f=rt(i[0][1])*ut,u&&(f=-f),a=it(a,at(i[0][0]*i[0][0]+i[0][1]*i[0][1]))*ut,u&&(a=-a),{origin:{x:h(r[4]),y:h(r[5])},translate:{x:h(t),y:h(n)},scale:{x:h(o),y:h(l)},skew:{x:h(a),y:0},rotate:h(f)}}},{key:"toString",value:function(){return null===this.s&&(this.s="matrix("+this.m.map((function(t){return h(t)})).join(" ")+")"),this.s}}]),t}();Object.freeze({M:2,L:2,Z:0,H:1,V:1,C:6,Q:4,T:2,S:4,A:7});var ft={},st=null;function ct(t){var r=function(){if(st)return st;if("object"!==("undefined"==typeof document?"undefined":n(document))||!document.createElementNS)return{};var t=document.createElementNS("http://www.w3.org/2000/svg","svg");return t&&t.style?(t.style.position="absolute",t.style.opacity="0.01",t.style.zIndex="-9999",t.style.left="-9999px",t.style.width="1px",t.style.height="1px",st={svg:t}):{}}().svg;if(!r)return function(t){return null};var e=document.createElementNS(r.namespaceURI,"path");e.setAttributeNS(null,"d",t),e.setAttributeNS(null,"fill","none"),e.setAttributeNS(null,"stroke","none"),r.appendChild(e);var i=e.getTotalLength();return function(t){var n=e.getPointAtLength(i*t);return{x:n.x,y:n.y}}}function ht(t){return ft[t]?ft[t]:ft[t]=ct(t)}function vt(t,n,r,e){if(!t||!e)return!1;var i=["M",t.x,t.y];if(n&&r&&(i.push("C"),i.push(n.x),i.push(n.y),i.push(r.x),i.push(r.y)),n?!r:r){var o=n||r;i.push("Q"),i.push(o.x),i.push(o.y)}return n||r||i.push("L"),i.push(e.x),i.push(e.y),i.join(" ")}function yt(t,n,r,e){var i=arguments.length>4&&void 0!==arguments[4]?arguments[4]:1,o=vt(t,n,r,e),u=ht(o);try{return u(i)}catch(t){return null}}function gt(t,n,r,e){var i=1-e;return i*i*t+2*i*e*n+e*e*r}function dt(t,n,r,e){return 2*(1-e)*(n-t)+2*e*(r-n)}function pt(t,n,r,e){var i=arguments.length>4&&void 0!==arguments[4]&&arguments[4],o=yt(t,n,null,r,e);return o||(o={x:gt(t.x,n.x,r.x,e),y:gt(t.y,n.y,r.y,e)}),i&&(o.a=mt(t,n,r,e)),o}function mt(t,n,r,e){return Math.atan2(dt(t.y,n.y,r.y,e),dt(t.x,n.x,r.x,e))}function bt(t,n,r,e,i){var o=i*i;return i*o*(e-t+3*(n-r))+3*o*(t+r-2*n)+3*i*(n-t)+t}function wt(t,n,r,e,i){var o=1-i;return 3*(o*o*(n-t)+2*o*i*(r-n)+i*i*(e-r))}function xt(t,n,r,e,i){var o=arguments.length>5&&void 0!==arguments[5]&&arguments[5],u=yt(t,n,r,e,i);return u||(u={x:bt(t.x,n.x,r.x,e.x,i),y:bt(t.y,n.y,r.y,e.y,i)}),o&&(u.a=kt(t,n,r,e,i)),u}function kt(t,n,r,e,i){return Math.atan2(wt(t.y,n.y,r.y,e.y,i),wt(t.x,n.x,r.x,e.x,i))}function _t(t,n,r){return t+(n-t)*r}function At(t,n,r){var e=arguments.length>3&&void 0!==arguments[3]&&arguments[3],i={x:_t(t.x,n.x,r),y:_t(t.y,n.y,r)};return e&&(i.a=St(t,n)),i}function St(t,n){return Math.atan2(n.y-t.y,n.x-t.x)}function Ot(t,n,r){var e=arguments.length>3&&void 0!==arguments[3]&&arguments[3];if(jt(n)){if(Mt(r))return pt(n,r.start,r,t,e)}else if(jt(r)){if(n.end)return pt(n,n.end,r,t,e)}else{if(n.end)return r.start?xt(n,n.end,r.start,r,t,e):pt(n,n.end,r,t,e);if(r.start)return pt(n,r.start,r,t,e)}return At(n,r,t,e)}function Pt(t,n,r){var e=Ot(t,n,r,!0);return e.a=function(t){return arguments.length>1&&void 0!==arguments[1]&&arguments[1]?t+Math.PI:t}(e.a)/y,e}function jt(t){return!t.type||"corner"===t.type}function Mt(t){return null!=t.start&&!jt(t)}var Et=new lt;var Rt={f:H,i:k},It={f:H,i:function(t,n,r){var e=k(t,n,r);return e<=0?0:e>=1?1:e}};function Ft(t,n,r,e,i,o,u,a){return n=function(t,n,r){for(var e,i,o,u=t.length-1,a={},l=0;l<=u;l++)(e=t[l]).e&&(e.e=n(e.e)),e.v&&"g"===(i=e.v).t&&i.r&&(o=r.getElementById(i.r))&&(a[i.r]=o.querySelectorAll("stop"));return a}(t,e,a),function(e){var i,o=r(e,t,Nt);return o?"c"===o.t?Z(o.v):"g"===o.t?(n[o.r]&&function(t,n){for(var r=0,e=t.length;r<e;r++)t[r].setAttribute("stop-color",Z(n[r]))}(n[o.r],o.v),(i=o.r)?"url(#"+i+")":"none"):"none":"none"}}function Nt(t,n,r){if(0===t)return n;if(1===t)return r;if(n&&r){var e=n.t;if(e===r.t)switch(n.t){case"c":return{t:e,v:O(t,n.v,r.v)};case"g":if(n.r===r.r)return{t:e,v:P(t,n.v,r.v),r:n.r}}}return x(t,n,r)}var Tt={fill:Ft,"fill-opacity":It,stroke:Ft,"stroke-opacity":It,"stroke-width":Rt,"stroke-dashoffset":{f:H,i:k},"stroke-dasharray":{f:function(t){var n=arguments.length>1&&void 0!==arguments[1]?arguments[1]:" ";return t&&t.length>0&&(t=t.map((function(t){return h(t,4)}))),J(t,n)},i:function(t,n,r){var e,i,o,u=n.length,a=r.length;if(u!==a)if(0===u)n=j(u=a,0);else if(0===a)a=u,r=j(u,0);else{var l=(o=(e=u)*(i=a)/function(t,n){for(var r;n;)r=n,n=t%n,t=r;return t||1}(e,i))<0?-o:o;n=M(n,Math.floor(l/u)),r=M(r,Math.floor(l/a)),u=a=l}for(var f=[],s=0;s<u;s++)f.push(h(_(t,n[s],r[s])));return f}},opacity:It,transform:function(t,r,e,i){if(!(t=function(t,r){if(!t||"object"!==n(t))return null;var e=!1;for(var i in t)t.hasOwnProperty(i)&&(t[i]&&t[i].length?(t[i].forEach((function(t){t.e&&(t.e=r(t.e))})),e=!0):delete t[i]);return e?t:null}(t,i)))return null;var o=function(n,i,o){var u=arguments.length>3&&void 0!==arguments[3]?arguments[3]:null;return t[n]?e(i,t[n],o):r&&r[n]?r[n]:u};return r&&r.a&&t.o?function(n){var r=e(n,t.o,Pt);return Et.recomposeSelf(r,o("r",n,k,0)+r.a,o("k",n,A),o("s",n,A),o("t",n,A)).toString()}:function(t){return Et.recomposeSelf(o("o",t,Ot,null),o("r",t,k,0),o("k",t,A),o("s",t,A),o("t",t,A)).toString()}},r:Rt,"#size":W,"#radius":K,_:function(t,n){if(Array.isArray(t))for(var r=0;r<t.length;r++)this[t[r]]=n;else this[t]=n}},Bt=function(t){!function(t,n){if("function"!=typeof n&&null!==n)throw new TypeError("Super expression must either be null or a function");t.prototype=Object.create(n&&n.prototype,{constructor:{value:t,writable:!0,configurable:!0}}),n&&a(t,n)}(e,t);var n=f(e);function e(){return r(this,e),n.apply(this,arguments)}return i(e,null,[{key:"build",value:function(t){var n=s(u(e),"build",this).call(this,t,Tt);if(!n)return null;n.el,n.options,function(t,n,r){t.play()}(n.player)}}]),e}($);return Bt.init(),Bt}));
(function(s,i,o,w){w[o]=w[o]||{};w[o][s]=w[o][s]||[];w[o][s].push(i);})('5c7f360c',{"root":"eqlPoxeaUs71","animations":[{"elements":{"eqlPoxeaUs717":{"transform":{"keys":{"o":[{"t":0,"v":{"x":-12.655,"y":-11.25,"type":"corner"}},{"t":500,"v":{"x":-13.655001,"y":-83.555,"type":"corner"}},{"t":1100,"v":{"x":-12.655,"y":-162.087087,"type":"corner"}},{"t":3000,"v":{"x":-12.655,"y":-10.61,"type":"corner"}}]}}},"eqlPoxeaUs723":{"transform":{"data":{"t":{"x":-288.214889,"y":-265.170723}},"keys":{"o":[{"t":0,"v":{"x":288.21489,"y":265.170723,"type":"corner"}},{"t":500,"v":{"x":288.57,"y":192.097404,"type":"corner"}},{"t":1100,"v":{"x":288.214995,"y":113.40239,"type":"corner"}},{"t":3000,"v":{"x":288.214995,"y":263.79,"type":"corner"}}]}}},"eqlPoxeaUs727":{"transform":{"data":{"t":{"x":-333.18988,"y":-143.159897}},"keys":{"o":[{"t":0,"v":{"x":333.18988,"y":143.159897,"type":"corner"}},{"t":500,"v":{"x":313.049906,"y":143.399906,"type":"corner"}},{"t":800,"v":{"x":293.477515,"y":143.179906,"type":"corner"}},{"t":900,"v":{"x":283.079899,"y":143.179906,"type":"corner"}},{"t":1500,"v":{"x":283.079899,"y":143.179906,"type":"corner"}},{"t":1800,"v":{"x":304.079899,"y":143.179906,"type":"corner"}},{"t":2300,"v":{"x":319.079899,"y":143.179906,"type":"corner"}},{"t":3000,"v":{"x":333.079899,"y":143.179906,"type":"corner"}}]}}},"eqlPoxeaUs730":{"transform":{"data":{"t":{"x":-233.419999,"y":-143.160156}},"keys":{"o":[{"t":0,"v":{"x":233.419999,"y":143.160157,"type":"corner"}},{"t":500,"v":{"x":253.305001,"y":143.046682,"type":"corner"}},{"t":800,"v":{"x":272.775001,"y":143.046682,"type":"corner"}},{"t":900,"v":{"x":283.129898,"y":143.180043,"type":"corner"}},{"t":1540,"v":{"x":283.129898,"y":143.180043,"type":"corner"}},{"t":1800,"v":{"x":263.879998,"y":143.046682,"type":"corner"}},{"t":2300,"v":{"x":248.300001,"y":143.046682,"type":"corner"}},{"t":3000,"v":{"x":232.859998,"y":143.180043,"type":"corner"}}]}}},"eqlPoxeaUs735":{"opacity":[{"t":0,"v":1},{"t":200,"v":0},{"t":2800,"v":0},{"t":3000,"v":1}]},"eqlPoxeaUs737":{"opacity":[{"t":0,"v":1},{"t":200,"v":0},{"t":2800,"v":0},{"t":3000,"v":1}]},"eqlPoxeaUs738":{"opacity":[{"t":0,"v":1},{"t":200,"v":0},{"t":2800,"v":0},{"t":3000,"v":1}]}},"s":"MIDA1M2E1NGM4ZTlmOWBM4YkQ5ZTkzOTk5ODRUjNjQ1ZDVhNWE1YTU2SNGM4ZTkzOWM4ZjhkODWU5Mzk5OTg0YzY0UjPViQjU2NGM5MzllOGYX5YzhiOWU5Mzk5OTg5RZDRjNjQ1YjU2NGM5MEEU5Mzk2OTY0YzY0NWRI1NjRjOGI5NjllOGYT5Yzk4OGI5ZThmNGM2SNDkwOGI5NjlkOGY1NOjRjOWRMOWE4ZjhmOGXU0YzY0NWJZYTc/"}],"options":"MJDAxMDg4MmY4MFA4MTXZlN2Y4MTJmNDcyZjcO5N2M2ZTcxMmY4YQ|"},'__SVGATOR_PLAYER__',window)]]></script></svg>